<?xml version="1.0" encoding="utf-8"?>
<!-- Generator: Adobe Illustrator 16.0.5, SVG Export Plug-In . SVG Version: 6.00 Build 0)  -->
<!DOCTYPE svg PUBLIC "-//W3C//DTD SVG 1.1//EN" "http://www.w3.org/Graphics/SVG/1.1/DTD/svg11.dtd">
<svg version="1.1" xmlns="http://www.w3.org/2000/svg" xmlns:xlink="http://www.w3.org/1999/xlink" x="0px" y="0px" width="35px"
	 height="35px" viewBox="0 0 35 35" enable-background="new 0 0 35 35" xml:space="preserve">
<g fill="white" id="Layer_1">
	<path d="M17.5,2.91c8.021,0,14.548,6.527,14.548,14.549c0,8.021-6.526,14.548-14.548,14.548c-8.022,0-14.549-6.526-14.549-14.548
		C2.952,9.437,9.478,2.91,17.5,2.91z M17.5,0C7.859,0,0.042,7.817,0.042,17.458c0,9.642,7.817,17.458,17.458,17.458
		c9.641,0,17.458-7.816,17.458-17.458C34.959,7.817,27.143,0,17.5,0z"/>
</g>
<g fill="white" id="Layer_2">
	<path d="M24.005,6.117h-12.96l-3.885,6.931v2.269h20.682V13.05L24.005,6.117z M10.407,12.679l2.187-3.921h9.855l2.169,3.921H10.407
		z"/>
	<polygon points="7.979,16.958 10.62,16.958 10.62,24.16 24.38,24.16 24.38,16.958 27.021,16.958 27.021,26.8 7.979,26.8 	"/>
	<rect x="14.54" y="17.599" width="5.921" height="2.642"/>
</g>
</svg>
