<?xml version="1.0" encoding="utf-8"?>
<!-- Generator: Adobe Illustrator 16.0.5, SVG Export Plug-In . SVG Version: 6.00 Build 0)  -->
<!DOCTYPE svg PUBLIC "-//W3C//DTD SVG 1.1//EN" "http://www.w3.org/Graphics/SVG/1.1/DTD/svg11.dtd">
<svg version="1.1" id="Layer_1" xmlns="http://www.w3.org/2000/svg" xmlns:xlink="http://www.w3.org/1999/xlink" x="0px" y="0px"
	 width="128px" height="128px" viewBox="0 0 128 128" enable-background="new 0 0 128 128" xml:space="preserve">
<g>
	<path fill="#353a4f" d="M118,128H82c-5.522,0-10-4.478-10-10V92H56v26c0,5.522-4.477,10-10,10H10c-5.523,0-10-4.478-10-10V46
		c0-5.523,4.477-10,10-10h26V20H0V0h46c5.523,0,10,4.477,10,10v36c0,5.523-4.477,10-10,10H20v52h16V82c0-5.522,4.477-10,10-10h36
		c5.522,0,10,4.478,10,10v26h16V56H82c-5.522,0-10-4.477-10-10V10c0-5.523,4.478-10,10-10h46v20H92v16h26c5.522,0,10,4.477,10,10v72
		C128,123.522,123.522,128,118,128z"/>
</g>
</svg>
